<?xml version="1.0" encoding="UTF-8"?>
<svg version="1.1" xmlns="http://www.w3.org/2000/svg" width="2287" height="2513">
<path d="M0 0 C2.33963034 -0.00011127 4.67926062 -0.00038121 7.01889095 -0.00066359 C23.24763392 -0.00199522 39.47619766 0.016505 55.70485768 0.07025938 C56.39535309 0.07252563 57.0858485 0.07479189 57.79726802 0.07712682 C70.61746934 0.12021108 83.43739525 0.19600326 96.25737843 0.2808917 C101.75605755 0.31690188 107.25471491 0.34409412 112.75347218 0.36487608 C199.52040262 0.70046778 284.20674652 9.34405412 432.4194878 62.01844053 C433.40368702 62.46429502 434.38788624 62.91014951 435.40190968 63.36951475 C464.83573986 76.8006362 493.11106853 93.19565835 519.4194878 112.01844053 C520.22644093 112.5948126 521.03339405 113.17118467 521.8648003 113.76502256 C531.04353066 120.35234413 539.99017404 127.10853888 548.5210503 134.51844053 C551.23162605 136.85640344 553.99645571 139.09907915 556.7944878 141.33094053 C568.34278584 150.77804393 578.86335573 161.36962742 589.4194878 171.89344053 C589.91412526 172.38539915 590.40876271 172.87735777 590.91838917 173.38422422 C596.63932132 179.08162225 602.1919882 184.86164598 607.4194878 191.01844053 C608.2651128 191.98265928 609.1107378 192.94687803 609.9819878 193.94031553 C618.29810829 203.58914763 625.91132856 213.7330531 633.4194878 224.01844053 C634.02228566 224.84295713 634.62508351 225.66747373 635.24614796 226.51697569 C644.47561387 239.21726561 652.69542185 252.35481765 660.4194878 266.01844053 C660.93253468 266.92352354 661.44558155 267.82860655 661.9741753 268.76111631 C701.33617023 338.58120312 720.51047452 415.71809487 730.4194878 546.01844053 C730.4523589 547.83166807 730.4523589 547.83166807 730.48589405 549.68152647 C731.72429138 631.27127003 718.04191025 710.57032428 696.4194878 789.01844053 C697.44944874 789.60109678 698.47940968 790.18375303 699.54058155 790.78406553 C710.29024845 796.94183963 720.43312433 803.6940815 730.4194878 811.01844053 C730.97475148 811.42449522 731.53001515 811.8305499 732.10210499 812.24890928 C735.5739449 814.79680932 739.00448503 817.39499469 742.4194878 820.01844053 C742.96137745 820.43416319 743.5032671 820.84988584 744.06157765 821.27820615 C755.87639765 830.36911923 767.17618644 840.00624688 778.21245655 850.02625303 C780.15574781 851.78037434 782.12308228 853.49816747 784.1069878 855.20594053 C795.49713476 865.15687204 806.31064428 875.74400945 816.98394093 886.45252256 C818.94307436 888.41709254 820.90760424 890.37615501 822.8726128 892.33484678 C833.94871393 903.40510065 833.94871393 903.40510065 839.00444874 909.35828428 C840.88422867 911.56368516 842.86096161 913.66946295 844.84282765 915.78284483 C850.65378513 921.97983127 856.15219723 928.34876515 861.4194878 935.01844053 C861.93237355 935.66409971 862.44525929 936.30975889 862.97368702 936.9749835 C887.004108 967.27481301 907.44399189 999.79934472 925.4194878 1034.01844053 C925.89772999 1034.92819639 926.37597218 1035.83795225 926.86870655 1036.77527647 C962.6724438 1105.39910618 983.20899211 1181.43031507 992.4194878 1258.01844053 C992.51250172 1258.79004514 992.60551564 1259.56164976 992.70134816 1260.35663633 C997.89080244 1304.21931385 997.75169961 1350.18260842 992.4194878 1394.01844053 C992.3369878 1394.71213743 992.2544878 1395.40583433 992.1694878 1396.12055235 C985.67599038 1450.41461988 971.27036852 1503.74153974 947.4194878 1553.01844053 C946.77874318 1554.36929746 946.77874318 1554.36929746 946.12505421 1555.74744444 C928.29129204 1593.32694405 904.48511846 1628.66922243 878.4194878 1661.01844053 C877.29993702 1662.41256162 877.29993702 1662.41256162 876.15776905 1663.83484678 C872.0232095 1668.93438433 867.80277689 1673.95962137 863.5444878 1678.95594053 C862.87655201 1679.74291319 862.87655201 1679.74291319 862.19512257 1680.54578428 C853.13156036 1691.12020498 843.49855337 1701.10275947 833.63897023 1710.9293292 C831.72023276 1712.84266247 829.80696026 1714.76134557 827.89409718 1716.6805499 C821.90433037 1722.67356388 815.89674435 1728.54771015 809.4194878 1734.01844053 C807.81180408 1735.4728957 806.20709066 1736.93064948 804.6069878 1738.39344053 C800.29174204 1742.28768671 795.84857025 1745.98498777 791.32964405 1749.63953428 C788.75033585 1751.7479889 786.20989105 1753.89175143 783.67925343 1756.05774717 C776.77541184 1761.96251133 769.6736087 1767.55044901 762.4194878 1773.01844053 C761.81266163 1773.47831358 761.20583546 1773.93818662 760.58062062 1774.41199522 C743.25182348 1787.54418269 725.63294103 1800.13781648 707.4194878 1812.01844053 C706.53245167 1812.59739073 705.64541554 1813.17634092 704.73149952 1813.77283506 C616.90916762 1870.87089625 528.94710135 1898.23822771 362.02693821 1902.08739178 C357.78414509 1902.08124587 353.54135184 1902.0782405 349.29855551 1902.07521822 C335.00551727 1902.06498357 320.71250711 1902.04329387 306.4194878 1902.01844053 C304.39375434 1902.01500555 302.36802087 1902.01157228 300.34228739 1902.00814085 C274.02540562 1901.96294344 247.70858943 1901.89690352 221.39176917 1901.82489796 C210.64000588 1901.79557979 199.88823782 1901.76820076 189.13646916 1901.74093734 C169.76539324 1901.69180976 150.39431937 1901.64192231 131.02324757 1901.59119444 C129.88106424 1901.58820382 128.73888091 1901.58521321 127.56208596 1901.58213197 C112.66439621 1901.54309797 97.76670776 1901.50359081 82.86901996 1901.4638236 C56.98368451 1901.39473551 31.09834545 1901.32726418 5.21299913 1901.2623717 C-0.34559671 1901.24843318 -5.90419227 1901.2344032 -11.4627873 1901.22014646 C-59.27728743 1901.09756064 -107.09149607 1900.99748548 -154.9061759 1901.02090757 C-157.879721 1901.02233874 -160.85326614 1901.02360374 -163.82681134 1901.02482347 C-181.40795243 1901.03218525 -198.98908056 1901.04161141 -216.57020278 1901.0692531 C-329.91109172 1901.24593161 -329.91109172 1901.24593161 -359.5805122 1894.01844053 C-360.29723095 1893.84473936 -361.0139497 1893.67103819 -361.7523872 1893.49207334 C-395.87047219 1884.94675668 -425.29025856 1865.96540856 -450.5805122 1842.01844053 C-451.51121532 1841.14187803 -452.44191845 1840.26531553 -453.4008247 1839.36219053 C-498.8604948 1795.32718245 -512.30662547 1736.1142677 -513.5805122 1675.01844053 C-513.75347828 1663.77625587 -513.7256069 1652.53138268 -513.71088329 1641.28821592 C-513.70540482 1637.08456333 -513.70843447 1632.88097731 -513.71433654 1628.67732744 C-513.73472899 1611.22394364 -513.64466152 1593.77491473 -513.34686962 1576.32386045 C-512.65517438 1535.18076406 -512.50825654 1494.04567992 -512.55092719 1452.89758934 C-512.55391402 1449.95083754 -512.55657784 1447.00408548 -512.55924667 1444.05733338 C-512.58206434 1418.99436947 -512.61423451 1393.93141083 -512.65955272 1368.86847715 C-512.6616444 1367.71092017 -512.6616444 1367.71092017 -512.66377833 1366.52997819 C-512.66659798 1364.97133139 -512.66941764 1363.41268459 -512.6722373 1361.85403778 C-512.67432727 1360.69779629 -512.67432727 1360.69779629 -512.67645946 1359.51819639 C-512.67785299 1358.74837394 -512.67924652 1357.97855149 -512.68068228 1357.18540109 C-512.70385653 1344.2668445 -512.71907113 1331.34829232 -512.72801885 1318.42971812 C-512.73327307 1311.25340434 -512.74232566 1304.07713822 -512.76140705 1296.90084676 C-512.95797336 1221.5149508 -511.10912788 1145.31777334 -455.7680122 1087.89344053 C-447.21915297 1079.5471609 -437.49559214 1072.60292906 -427.76557079 1065.71546201 C-417.06039147 1058.12650614 -407.08589696 1050.06863786 -397.5805122 1041.01844053 C-396.78902782 1040.29140928 -395.99754345 1039.56437803 -395.1820747 1038.81531553 C-384.06398573 1028.28238914 -377.01081687 1015.73011961 -370.5805122 1002.01844053 C-370.20152782 1001.32879209 -369.82254345 1000.63914365 -369.4320747 999.92859678 C-365.30479466 990.67061542 -366.34442738 978.24912003 -366.2680122 968.39344053 C-366.25044872 967.17922422 -366.23288524 965.96500791 -366.21478954 964.71399717 C-366.22462358 950.17436723 -368.92412681 937.08494163 -379.04535595 926.28406553 C-385.96819252 920.09724702 -394.58028043 916.06516155 -402.7367622 911.76062803 C-430.67782649 897.00105568 -455.11175475 879.19803349 -474.5805122 854.01844053 C-475.0445747 853.42547178 -475.5086372 852.83250303 -475.9867622 852.22156553 C-483.27645363 842.88164839 -489.77123249 833.34178029 -495.5805122 823.01844053 C-496.09025585 822.13237119 -496.09025585 822.13237119 -496.61029735 821.22840147 C-523.36360451 774.57964111 -532.45981743 714.29547676 -518.63324657 662.15052061 C-506.44597798 618.81577697 -484.71577458 577.33047836 -449.01410595 549.02234678 C-446.94549355 547.31897895 -445.14937283 545.60114549 -443.3305122 543.64344053 C-420.56722095 520.22976954 -385.36825033 506.75486184 -354.2055122 500.14344053 C-353.30486034 499.95233701 -352.40420848 499.7612335 -351.47626415 499.56433897 C-336.73500125 496.66061715 -321.8934305 495.6056183 -306.8930122 495.64344053 C-305.71185833 495.64375776 -305.71185833 495.64375776 -304.50684276 495.6440814 C-248.84308225 495.79136218 -197.19677703 515.16380919 -155.95160595 552.87000303 C-153.84287852 554.78071157 -151.69271115 556.62144201 -149.5180122 558.45594053 C-134.22942843 571.88674818 -122.65398821 589.51084495 -112.5805122 607.01844053 C-112.21619091 607.63864073 -111.85186962 608.25884092 -111.47650829 608.89783506 C-95.64515456 635.99166287 -85.55293805 669.56156334 -85.3773872 701.03015928 C-85.37032756 701.87222929 -85.36326793 702.71429929 -85.35599437 703.58188657 C-85.12959953 738.52188931 -85.12959953 738.52188931 -88.5805122 754.01844053 C-88.87852733 755.41207823 -88.87852733 755.41207823 -89.18256298 756.83387022 C-98.20840999 798.22430873 -116.786071 834.43320989 -145.3930122 865.58094053 C-145.895666 866.12855039 -146.39831981 866.67616026 -146.91620556 867.24036436 C-162.10620952 883.42667794 -181.36465751 896.11363991 -200.56098095 907.01453428 C-201.17770168 907.36490247 -201.79442241 907.71527067 -202.42983165 908.07625608 C-205.51112404 909.82299314 -208.59855991 911.55737127 -211.69696727 913.27356748 C-225.97371248 921.23212508 -225.97371248 921.23212508 -235.5805122 934.01844053 C-236.11611766 935.09158506 -236.11611766 935.09158506 -236.66254345 936.18640928 C-248.04068177 961.62741519 -242.97865294 991.49616406 -233.58148876 1016.61975889 C-225.84284398 1035.16419424 -207.89634851 1048.77474122 -192.5805122 1061.01844053 C-188.89683987 1063.99812215 -185.23472877 1067.00272954 -181.5805122 1070.01844053 C-180.5801997 1070.8305499 -179.5798872 1071.64265928 -178.5492622 1072.47937803 C-127.28154622 1114.73555558 -103.26554163 1168.3726199 -96.5805122 1234.01844053 C-94.65930292 1254.16008055 -94.31488831 1274.14426627 -94.41065589 1294.35213737 C-94.42726889 1298.39680548 -94.43104045 1302.44148731 -94.43611827 1306.48618345 C-94.44736637 1314.11722971 -94.4679964 1321.74821439 -94.49301597 1329.37922685 C-94.53774701 1343.04536152 -94.57076475 1356.71151759 -94.59326002 1370.37770669 C-94.60154993 1375.15022915 -94.61560079 1379.9226893 -94.63409564 1384.69518249 C-96.99909421 1412.45602799 -96.99909421 1412.45602799 -91.2680122 1437.98377256 C-90.7111372 1438.49279112 -90.1542622 1439.00180967 -89.5805122 1439.52625303 C-88.94935497 1440.11398496 -88.31819774 1440.7017169 -87.66791454 1441.30725889 C-86.97907177 1441.91319883 -86.29022899 1442.51913877 -85.5805122 1443.14344053 C-84.86717723 1443.78869688 -84.15384227 1444.43395323 -83.4188911 1445.0987628 C-71.7273343 1455.52060785 -59.52889344 1464.83862267 -45.5805122 1472.01844053 C-44.69621532 1472.48637022 -43.81191845 1472.9542999 -42.9008247 1473.43640928 C-37.39568649 1476.1555125 -31.71477714 1478.011437 -25.8305122 1479.70594053 C-24.79555614 1480.0098773 -24.79555614 1480.0098773 -23.73969188 1480.3199542 C-7.53329912 1484.74441018 8.97297258 1484.3229219 25.63142142 1484.32045572 C29.3210045 1484.32210971 33.01054985 1484.33526925 36.70011219 1484.34699278 C43.08405108 1484.36577518 49.46797109 1484.37754291 55.85193333 1484.3845313 C65.11773351 1484.39476934 74.38347728 1484.41688159 83.64924793 1484.44191722 C98.73378207 1484.4824429 113.81832168 1484.51492215 128.90288624 1484.54163389 C129.80386621 1484.54323119 130.70484618 1484.54482849 131.63312857 1484.5464742 C132.53509122 1484.5480731 133.43705386 1484.54967199 134.36634871 1484.55131935 C147.10737391 1484.57393104 159.84839307 1484.59857907 172.58940968 1484.62561826 C173.48381816 1484.62751441 174.37822665 1484.62941055 175.29973842 1484.63136416 C190.3103351 1484.66334509 205.32092154 1484.69911934 220.33150527 1484.73665975 C229.55061548 1484.75946985 238.76971896 1484.77850255 247.98884712 1484.79232649 C254.33282772 1484.80199 260.6767966 1484.81489149 267.02076621 1484.83013534 C270.65828884 1484.83874077 274.29579736 1484.84593073 277.93332943 1484.84877615 C295.7696765 1484.86384425 313.56883174 1485.18733179 331.39330181 1485.79005747 C339.35615182 1486.05897094 347.31166033 1486.19344866 355.2788628 1486.22156553 C356.28794571 1486.2258066 356.28794571 1486.2258066 357.31741413 1486.23013334 C360.85876612 1486.24468854 364.40008185 1486.25419328 367.94146046 1486.2586749 C370.76743626 1486.2630845 373.59311105 1486.277136 376.41899952 1486.29969053 C442.32912519 1486.81344729 501.4262808 1472.16966145 549.4194878 1425.01844053 C580.68418324 1393.85625229 597.56974086 1348.58637375 597.85601124 1304.94266538 C597.86160708 1292.1259173 597.4690892 1279.52098426 594.4194878 1267.01844053 C594.22081105 1266.19166807 594.02213429 1265.36489561 593.81743702 1264.51306944 C581.43150214 1214.51471507 549.82934662 1176.05429075 506.42168507 1149.23841123 C472.60203647 1128.84880787 435.1164833 1124.67173444 396.4194878 1123.01844053 C395.45424183 1122.97696897 394.48899586 1122.93549741 393.49450001 1122.89276914 C383.92589928 1122.48355623 374.35689879 1122.08469588 364.7866753 1121.71521787 C363.79070332 1121.67655607 362.79473133 1121.63789427 361.76857838 1121.59806089 C359.80111 1121.52203216 357.83360099 1121.44704693 355.86605152 1121.37314634 C351.2882084 1121.19582714 346.71728684 1120.9868109 342.14556202 1120.68933897 C333.36408134 1120.12158712 325.15032162 1119.94886135 316.4194878 1121.39344053 C314.56564708 1121.6742467 312.71147892 1121.95289975 310.8569878 1122.22937803 C309.58396557 1122.42155157 309.58396557 1122.42155157 308.28522572 1122.6176074 C284.54602567 1125.93802892 260.1505079 1125.20687535 236.22734913 1125.20374326 C232.99291695 1125.20366225 229.75862718 1125.21058758 226.52422413 1125.22425108 C153.04896515 1125.52916364 73.34531436 1120.11843265 17.9819878 1065.95594053 C-0.02148558 1047.85501633 -12.60411892 1025.8058827 -21.5805122 1002.01844053 C-21.85057079 1001.32315244 -22.12062938 1000.62786436 -22.39887157 999.91150694 C-29.91284969 980.33341949 -33.89484845 958.88126582 -35.5805122 938.01844053 C-35.69008251 936.82090147 -35.79965282 935.6233624 -35.91254345 934.38953428 C-40.42966519 876.6306043 -32.84055458 802.05057525 4.4194878 755.01844053 C4.84729542 754.47542295 5.27510304 753.93240537 5.71587452 753.37293272 C26.26137102 727.52274735 54.78373893 713.12491935 86.2398003 704.67859678 C87.36478932 704.37643247 88.48977833 704.07426817 89.64885792 703.76294737 C103.82087436 700.03135947 118.17307333 697.18776133 132.53325734 694.28894834 C145.62445796 691.63563776 158.63472757 688.8424041 171.54058155 685.38562803 C172.58214405 685.1075128 173.62370655 684.82939756 174.69683155 684.54285459 C195.5208736 678.82220556 215.70960034 669.84647784 232.4194878 656.01844053 C233.69179249 654.99170225 233.69179249 654.99170225 234.9898003 653.94422178 C246.98168749 643.77555255 255.38856246 630.94025889 262.4194878 617.01844053 C262.76608448 616.33862119 263.11268116 615.65880186 263.46978077 614.95838194 C272.26676523 597.38507291 278.22244425 577.6809892 279.4194878 558.01844053 C279.52390187 556.47349912 279.52390187 556.47349912 279.6304253 554.89734678 C280.82735124 518.7593905 264.62066702 484.8522381 240.7944878 458.58094053 C210.22834109 426.2706485 174.00237852 414.83421573 130.4194878 413.01844053 C123.86701018 412.85426008 117.31214794 412.89130057 110.75815663 412.90491514 C108.81668469 412.90519575 106.87521264 412.90503101 104.93374076 412.90446405 C99.64046481 412.90417065 94.34721168 412.91007239 89.05394098 412.91703396 C83.32836388 412.92344275 77.60278583 412.92397987 71.8772057 412.92520933 C61.96499792 412.92808901 52.05279763 412.93451728 42.14059338 412.94327573 C27.78002789 412.95587002 13.41946516 412.96191608 -0.94110494 412.9662091 C-7.64807972 412.96823786 -14.35505439 412.9705424 -21.06202903 412.97295408 C-21.7333307 412.97319509 -22.40463236 412.97343611 -23.09627649 412.97368442 C-39.05236741 412.9794878 -55.00845631 412.98844327 -70.9645454 412.99793272 C-71.66205447 412.99834636 -72.35956355 412.99876001 -73.07820927 412.99918619 C-84.39071187 413.00589926 -95.70321435 413.01280378 -107.01571682 413.01974253 C-117.59794348 413.02623264 -128.18017018 413.03265765 -138.76239696 413.03894834 C-139.80556785 413.03957023 -139.80556785 413.03957023 -140.86981291 413.04020467 C-156.77796502 413.04967105 -172.68611691 413.05821805 -188.59427086 413.06392698 C-189.26479005 413.06416797 -189.93530924 413.06440897 -190.62614719 413.06465726 C-197.98652919 413.06727988 -205.34691123 413.06966135 -212.70729336 413.07185869 C-227.01735787 413.07632166 -241.32741192 413.08432375 -255.63747155 413.0970035 C-265.45842323 413.10547698 -275.27937252 413.11033092 -285.10032762 413.11242871 C-290.75225841 413.11376372 -296.40417567 413.11670614 -302.05610195 413.12418775 C-421.42436832 413.27652483 -421.42436832 413.27652483 -462.34223095 375.10437803 C-464.43505586 373.1539967 -466.58349761 371.30212685 -468.7680122 369.45594053 C-506.00052541 336.93665594 -526.91256548 281.1408023 -530.5805122 233.01844053 C-530.92008287 226.33426889 -530.92205696 219.64703086 -530.8930122 212.95594053 C-530.89085704 212.05836027 -530.88870189 211.16078001 -530.88648143 210.23600034 C-530.71914434 166.67757343 -519.82702266 123.53147046 -493.5805122 88.01844053 C-492.81352001 86.96914365 -492.04652782 85.91984678 -491.25629345 84.83875303 C-485.93664706 77.68179481 -480.20182575 70.98807826 -474.03998485 64.545296 C-473.05542792 63.51528278 -472.0760308 62.48031594 -471.10150829 61.44080381 C-438.66625397 26.92784637 -388.48265295 2.62650058 -340.83084145 0.91996782 C-337.68224583 0.87673507 -334.53485636 0.86298877 -331.38596264 0.86022215 C-330.18162323 0.85528417 -328.97728382 0.85034619 -327.73644927 0.84525858 C-324.41268894 0.83260688 -321.08896994 0.82428373 -317.76519528 0.81783192 C-314.16878142 0.80978268 -310.57238833 0.79609481 -306.97598949 0.78311948 C-299.91951521 0.75853924 -292.86303566 0.73911102 -285.80654125 0.72136674 C-277.5157336 0.70029677 -269.22494551 0.6738617 -260.93415429 0.64719527 C-246.05082161 0.5994866 -231.16747929 0.55628612 -216.28412548 0.51575498 C-202.01653797 0.47689395 -187.74896147 0.43547959 -173.4813911 0.39075498 C-172.61214021 0.38803071 -171.74288931 0.38530644 -170.84729747 0.38249961 C-167.34736651 0.37152501 -163.84743557 0.36054592 -160.34750465 0.34955747 C-145.72600609 0.30373183 -131.10450079 0.26011626 -116.48299471 0.21676783 C-113.21498813 0.2070733 -109.94698182 0.19729531 -106.67897573 0.18743806 C-71.11931376 0.08028537 -35.55984102 0.00149053 0 0 Z " fill="#502E7D" transform="translate(893.5805121958256,-0.018440529704093933)"/>
<path d="M0 0 C1.18115387 0.00031723 1.18115387 0.00031723 2.38616943 0.00064087 C58.04992994 0.14792165 109.69623517 19.52036866 150.94140625 57.2265625 C153.05013367 59.13727104 155.20030105 60.97800148 157.375 62.8125 C172.66358376 76.24330765 184.23902398 93.86740442 194.3125 111.375 C194.67682129 111.9952002 195.04114258 112.61540039 195.41650391 113.25439453 C211.24785764 140.34822234 221.34007414 173.91812281 221.515625 205.38671875 C221.52268463 206.22878876 221.52974426 207.07085876 221.53701782 207.93844604 C221.76341267 242.87844878 221.76341267 242.87844878 218.3125 258.375 C218.01448486 259.7686377 218.01448486 259.7686377 217.71044922 261.19042969 C208.68460221 302.5808682 190.1069412 338.78976936 161.5 369.9375 C160.99734619 370.48510986 160.49469238 371.03271973 159.97680664 371.59692383 C144.78680267 387.78323741 125.52835468 400.47019938 106.33203125 411.37109375 C105.71531052 411.72146194 105.09858978 412.07183014 104.46318054 412.43281555 C101.38188816 414.17955261 98.29445229 415.91393074 95.19604492 417.63012695 C80.91929971 425.58868455 80.91929971 425.58868455 71.3125 438.375 C70.95542969 439.09042969 70.59835937 439.80585937 70.23046875 440.54296875 C58.85233043 465.98397466 63.91435925 495.85272353 73.31152344 520.97631836 C81.05016821 539.52075371 98.99666368 553.13130069 114.3125 565.375 C117.99617233 568.35468162 121.65828342 571.35928901 125.3125 574.375 C126.3128125 575.18710938 127.313125 575.99921875 128.34375 576.8359375 C179.61146597 619.09211505 203.62747057 672.72917937 210.3125 738.375 C212.23370927 758.51664002 212.57812389 778.50082574 212.48235631 798.70869684 C212.46574331 802.75336495 212.46197174 806.79804679 212.45689392 810.84274292 C212.44564582 818.47378918 212.42501579 826.10477386 212.39999622 833.73578632 C212.35526519 847.40192099 212.32224744 861.06807706 212.29975218 874.73426616 C212.29146331 879.50619058 212.27756854 884.27805281 212.25877964 889.04994702 C212.24798438 892.03244726 212.2415007 895.01494713 212.23597908 897.99746132 C212.23097088 899.99523225 212.22077463 901.99298819 212.21029663 903.99073792 C212.20232895 910.49874164 212.38549745 916.95336753 212.8125 923.44633484 C213.60570009 936.06234295 213.43199841 948.70050781 213.39924753 961.33534992 C213.39070814 965.07988058 213.38820159 968.82441612 213.38499451 972.56895447 C213.37873501 979.04126868 213.36901957 985.51356995 213.35709953 991.98587608 C213.34000412 1001.36844844 213.33053511 1010.7510177 213.3232208 1020.13360224 C213.31130808 1035.39432909 213.29637481 1050.65505096 213.27807617 1065.91577148 C213.27698605 1066.8266499 213.27589593 1067.73752831 213.27477277 1068.6760091 C213.25917301 1081.59291977 213.24057327 1094.50982441 213.2207749 1107.42672924 C213.21938158 1108.3360917 213.21798827 1109.24545415 213.21655273 1110.18237305 C213.2151592 1111.09060838 213.21376567 1111.99884371 213.21232992 1112.93460133 C213.18920819 1128.1373354 213.17394881 1143.34006559 213.16499335 1158.54281455 C213.15917759 1167.88885844 213.14691289 1177.23484822 213.12602056 1186.58087078 C213.11219783 1192.99669555 213.10581341 1199.41250168 213.10501044 1205.82834115 C213.10431423 1209.51530953 213.10050721 1213.20219752 213.0875473 1216.8891449 C212.9678261 1252.48232588 214.88546185 1288.14566564 231.3125 1320.375 C231.79589844 1321.35082031 232.27929688 1322.32664062 232.77734375 1323.33203125 C238.58829382 1334.58370465 246.6396296 1344.21946551 255.3125 1353.375 C256.04339844 1354.14714844 256.77429688 1354.91929688 257.52734375 1355.71484375 C262.19385265 1360.51257259 267.09545846 1364.71832487 272.44140625 1368.74609375 C273.05886719 1369.28363281 273.67632813 1369.82117187 274.3125 1370.375 C274.3125 1371.035 274.3125 1371.695 274.3125 1372.375 C274.90474365 1372.6443335 275.4969873 1372.91366699 276.10717773 1373.19116211 C278.30975642 1374.37352722 279.80600061 1375.58705972 281.59765625 1377.31640625 C282.20544922 1377.89575928 282.81324219 1378.4751123 283.43945312 1379.07202148 C284.07818359 1379.68762939 284.71691406 1380.3032373 285.375 1380.9375 C290.72264967 1386.02075543 296.16336558 1390.79413391 301.92578125 1395.40234375 C305.26879203 1398.16538867 308.45890325 1401.10261601 311.3125 1404.375 C311.3125 1404.705 311.3125 1405.035 311.3125 1405.375 C276.17861144 1405.39801061 241.04472444 1405.41557087 205.9108299 1405.42606533 C201.7401138 1405.42731567 197.56939772 1405.42861003 193.39868164 1405.42993164 C192.568549 1405.43019395 191.73841635 1405.43045626 190.88312817 1405.43072652 C177.53346291 1405.43504919 164.18380206 1405.44291752 150.8341394 1405.4521528 C137.08283044 1405.46158486 123.33152376 1405.46707556 109.5802117 1405.46908849 C101.87881248 1405.4703241 94.17742245 1405.47326251 86.47602654 1405.48073006 C30.72238474 1405.53312821 30.72238474 1405.53312821 7.55688477 1404.91967773 C6.78905037 1404.89940525 6.02121597 1404.87913277 5.23011386 1404.85824597 C-14.39814504 1404.31816768 -33.56711516 1403.0327388 -52.6875 1398.375 C-53.40421875 1398.20129883 -54.1209375 1398.02759766 -54.859375 1397.84863281 C-88.97745999 1389.30331615 -118.39724636 1370.32196803 -143.6875 1346.375 C-144.61820312 1345.4984375 -145.54890625 1344.621875 -146.5078125 1343.71875 C-191.96748261 1299.68374192 -205.41361328 1240.47082717 -206.6875 1179.375 C-206.86046608 1168.13281534 -206.8325947 1156.88794215 -206.81787109 1145.64477539 C-206.81239262 1141.4411228 -206.81542228 1137.23753678 -206.82132435 1133.03388691 C-206.84171679 1115.58050311 -206.75164932 1098.1314742 -206.45385742 1080.68041992 C-205.76216218 1039.53732353 -205.61524435 998.40223939 -205.657915 957.25414881 C-205.66090183 954.30739701 -205.66356565 951.36064495 -205.66623448 948.41389285 C-205.68905214 923.35092894 -205.72122231 898.2879703 -205.76654053 873.22503662 C-205.76793498 872.45333196 -205.76932943 871.68162731 -205.77076614 870.88653766 C-205.77358579 869.32789086 -205.77640544 867.76924406 -205.7792251 866.21059725 C-205.78061842 865.43976959 -205.78201173 864.66894193 -205.78344727 863.87475586 C-205.7848408 863.10493341 -205.78623433 862.33511096 -205.78767008 861.54196056 C-205.81084433 848.62340397 -205.82605893 835.70485179 -205.83500665 822.78627759 C-205.84026088 815.60996381 -205.84931346 808.43369769 -205.86839485 801.25740623 C-206.06496117 725.87151027 -204.21611569 649.67433281 -148.875 592.25 C-140.32614077 583.90372037 -130.60257994 576.95948853 -120.87255859 570.07202148 C-110.16737928 562.48306561 -100.19288477 554.42519733 -90.6875 545.375 C-89.50027344 544.28445313 -89.50027344 544.28445313 -88.2890625 543.171875 C-77.17097353 532.63894861 -70.11780467 520.08667908 -63.6875 506.375 C-63.30851563 505.68535156 -62.92953125 504.99570312 -62.5390625 504.28515625 C-58.41178247 495.02717489 -59.45141518 482.6056795 -59.375 472.75 C-59.35743652 471.53578369 -59.33987305 470.32156738 -59.32177734 469.07055664 C-59.33161138 454.5309267 -62.03111461 441.4415011 -72.15234375 430.640625 C-79.07518032 424.45380649 -87.68726824 420.42172102 -95.84375 416.1171875 C-123.78481429 401.35761515 -148.21874255 383.55459296 -167.6875 358.375 C-168.1515625 357.78203125 -168.615625 357.1890625 -169.09375 356.578125 C-176.38344143 347.23820786 -182.87822029 337.69833976 -188.6875 327.375 C-189.19724365 326.48893066 -189.19724365 326.48893066 -189.71728516 325.58496094 C-216.47059232 278.93620058 -225.56680524 218.65203623 -211.74023438 166.50708008 C-199.55296578 123.17233644 -177.82276238 81.68703783 -142.12109375 53.37890625 C-140.05248136 51.67553842 -138.25636064 49.95770496 -136.4375 48 C-113.67420876 24.58632901 -78.47523813 11.11142131 -47.3125 4.5 C-46.41184814 4.30889648 -45.51119629 4.11779297 -44.58325195 3.92089844 C-29.84198905 1.01717662 -15.00041831 -0.03782223 0 0 Z " fill="#482D74" transform="translate(586.6875,495.625)"/>
<path d="M0 0 C0.68040848 -0.00335861 1.36081696 -0.00671722 2.06184387 -0.01017761 C4.33210047 -0.01973437 6.60228306 -0.02163609 8.87255859 -0.02270508 C10.4745588 -0.02592517 12.07655873 -0.02928979 13.67855835 -0.03279114 C17.06321893 -0.03880149 20.44785398 -0.04063016 23.83251953 -0.04003906 C27.23784868 -0.03995921 30.64303929 -0.04666398 34.04833984 -0.06054688 C141.59733804 -0.49247999 141.59733804 -0.49247999 168.08349609 24.27026367 C181.47344836 38.45067824 186.78140387 55.90436601 186.61083984 75.10229492 C185.9233394 92.81930949 179.23177904 109.08038232 166.27099609 121.27026367 C160.44176779 126.20820399 153.89093485 130.15406375 147.39599609 134.14526367 C147.99959961 134.37076904 148.60320312 134.59627441 149.22509766 134.82861328 C169.08753038 142.34233759 185.64384293 151.23582338 195.39599609 171.14526367 C202.73474841 189.90245809 202.32058697 210.03434378 196.39599609 229.14526367 C196.10724609 230.16749023 195.81849609 231.1897168 195.52099609 232.24291992 C190.0308467 249.66924232 175.18504824 261.88423911 159.54052734 270.12231445 C142.59256986 278.60961706 124.08589851 282.77526747 105.39599609 285.14526367 C104.66412582 285.23917389 103.93225555 285.33308411 103.1782074 285.42984009 C86.9626184 287.42951907 70.76199863 287.41912917 54.45458984 287.34088135 C51.64623143 287.33013343 48.83792213 287.330453 46.02954674 287.33090019 C27.79726197 287.33011911 9.61320266 286.93548641 -8.60400391 286.14526367 C-9.79142172 281.91005896 -9.73284389 277.80224901 -9.70935059 273.43431091 C-9.7085465 272.55004193 -9.7077424 271.66577295 -9.70691395 270.75470793 C-9.70290005 267.79688962 -9.69157436 264.83914606 -9.68017578 261.88134766 C-9.67560148 259.76793972 -9.67141641 257.65453091 -9.66759491 255.54112148 C-9.65581064 249.8892499 -9.63726835 244.23742158 -9.61649704 238.58557653 C-9.6042844 235.22250571 -9.59327624 231.85943321 -9.58267212 228.49635696 C-9.53433639 213.37362997 -9.4702499 198.25098988 -9.40207481 183.12834096 C-9.37330071 176.6957069 -9.34571923 170.26306772 -9.31799316 163.83042908 C-9.27156831 153.09495758 -9.22444907 142.35948938 -9.17675781 131.62402344 C-9.1277676 120.59570522 -9.07922477 109.56738518 -9.03125 98.5390625 C-9.028263 97.85245354 -9.02527601 97.16584458 -9.0221985 96.45842928 C-9.0072074 93.01187646 -8.99222475 89.5653236 -8.97724628 86.11877072 C-8.85413924 57.79426258 -8.72955931 29.46976105 -8.60400391 1.14526367 C-5.71929554 -0.29709051 -3.22384 0.00997934 0 0 Z M44.39599609 42.14526367 C44.39599609 67.55526367 44.39599609 92.96526367 44.39599609 119.14526367 C51.34662109 119.20713867 58.29724609 119.26901367 65.45849609 119.33276367 C67.61904541 119.36007568 69.77959473 119.3873877 72.00561523 119.41552734 C89.95168117 119.54798486 109.64597347 118.24052331 123.39599609 105.14526367 C132.17279426 95.5972824 136.93985906 85.5078407 136.79443359 72.53588867 C135.93533333 65.22511386 131.87349975 60.08441633 126.39599609 55.39526367 C111.6903389 44.95104483 93.31578693 41.94054333 75.64599609 42.04760742 C74.44910156 42.04911804 74.44910156 42.04911804 73.22802734 42.05065918 C70.28400204 42.05584035 67.33999742 42.06980107 64.39599609 42.08276367 C57.79599609 42.10338867 51.19599609 42.12401367 44.39599609 42.14526367 Z M44.39599609 158.14526367 C44.39599609 186.85526367 44.39599609 215.56526367 44.39599609 245.14526367 C56.92568359 245.23807617 56.92568359 245.23807617 69.70849609 245.33276367 C72.30249268 245.36007568 74.89648926 245.3873877 77.5690918 245.41552734 C108.16082239 245.81060128 108.16082239 245.81060128 135.74755859 233.96948242 C145.36898698 223.32207234 151.86202607 209.65044668 151.39599609 195.14526367 C150.30686942 187.90885472 147.2855715 182.50585323 142.39599609 177.14526367 C141.85458984 176.5497168 141.31318359 175.95416992 140.75537109 175.34057617 C126.13220163 161.0353017 102.90405549 157.95377816 83.45849609 158.04760742 C81.96672852 158.04911804 81.96672852 158.04911804 80.44482422 158.05065918 C76.76186963 158.05585554 73.07893159 158.06981657 69.39599609 158.08276367 C61.14599609 158.10338867 52.89599609 158.12401367 44.39599609 158.14526367 Z " fill="#652E84" transform="translate(9.60400390625,2221.854736328125)"/>
<path d="M0 0 C0.86496094 0.01788574 1.72992188 0.03577148 2.62109375 0.05419922 C37.55647924 0.89328544 78.49935312 4.48085856 105 30 C120.50933533 47.43884319 125.02826775 68.26505379 124 91 C122.41083749 115.2817197 115.92387785 135.38997346 97.6328125 152.171875 C91.97812014 156.93171705 85.76268278 160.78222274 79.44458008 164.58837891 C78.78353271 164.98847168 78.12248535 165.38856445 77.44140625 165.80078125 C76.85045166 166.15309814 76.25949707 166.50541504 75.65063477 166.8684082 C73.88006998 168.08221796 72.47010333 169.44107036 71 171 C80.83441168 191.26821189 92.06141048 210.65719319 103.33154297 230.15112305 C112.0700287 245.28754932 120.68331251 260.49697831 128.875 275.9375 C129.509823 277.1275061 129.509823 277.1275061 130.1574707 278.34155273 C133 283.75742096 133 283.75742096 133 286 C128.58386849 286.34067818 124.16702805 286.67116693 119.75 287 C117.89761719 287.14308594 117.89761719 287.14308594 116.0078125 287.2890625 C82.5523864 289.75419916 82.5523864 289.75419916 75 284 C69.70007061 277.25401897 66.10525322 269.4860886 62.375 261.8125 C61.1357235 259.29412873 59.88948112 256.77925796 58.640625 254.265625 C58.33065582 253.64152237 58.02068665 253.01741974 57.70132446 252.37440491 C53.07638049 243.09974673 48.0319392 234.05778474 43 225 C39.56358444 218.79065674 39.56358444 218.79065674 37.97067261 215.89964294 C36.22899879 212.74005337 34.4766793 209.58755049 32.69824219 206.44848633 C29.74445846 201.20707932 26.89963279 196.05032216 24.75390625 190.41015625 C22.97095921 185.84661726 21.4961335 182.51552953 18 179 C10.99583065 176.48483049 3.26521408 177.58569914 -4 178 C-11.26 178 -18.52 178 -26 178 C-26 213.64 -26 249.28 -26 286 C-35 287.125 -35 287.125 -38.94726562 287.11352539 C-40.26772888 287.11341209 -40.26772888 287.11341209 -41.61486816 287.11329651 C-42.53602417 287.10813522 -43.45718018 287.10297394 -44.40625 287.09765625 C-45.3715564 287.0962413 -46.33686279 287.09482635 -47.3314209 287.09336853 C-50.38764665 287.0878108 -53.44379673 287.0752663 -56.5 287.0625 C-58.58333227 287.05747953 -60.6666657 287.05291758 -62.75 287.04882812 C-67.83336035 287.03870997 -72.91667061 287.0199584 -78 287 C-78.99747146 269.7950748 -79.14921269 252.6170848 -79.13419914 235.3889513 C-79.13230481 232.32278502 -79.13404331 229.25662472 -79.13576198 226.19045866 C-79.14081763 217.10823302 -79.13640885 208.02602863 -79.12897491 198.94380569 C-79.12548515 194.66278724 -79.12321504 190.38176925 -79.12139618 186.10074979 C-79.1024717 141.57261078 -79.01640326 97.04493327 -78.6521225 52.51812363 C-78.62499378 49.06170721 -78.60139573 45.6052822 -78.57867432 42.14883423 C-78.54286725 36.81375284 -78.49691731 31.47886257 -78.44206238 26.14394379 C-78.42361691 24.21948832 -78.40838994 22.29499891 -78.3966217 20.37049103 C-78.38001741 17.78724221 -78.35120921 15.20443013 -78.31884766 12.62133789 C-78.3166881 11.86801084 -78.31452854 11.11468378 -78.31230354 10.33852863 C-78.22860623 5.22860623 -78.22860623 5.22860623 -76 3 C-72.27543956 1.65845217 -68.29315879 1.68696432 -64.375 1.5 C-63.57449219 1.46011963 -62.77398437 1.42023926 -61.94921875 1.37915039 C-41.35031687 0.41498646 -20.62110449 -0.45075844 0 0 Z M-26 45 C-26 74.7 -26 104.4 -26 135 C-14.3984375 135.0928125 -14.3984375 135.0928125 -2.5625 135.1875 C1.0425647 135.22846802 1.0425647 135.22846802 4.72045898 135.27026367 C23.07780413 135.39182006 45.79637247 135.37280758 59.8671875 121.69140625 C69.3835157 109.68270638 75.74359521 94.44906451 74 79 C71.95047183 69.02562959 66.35123562 61.90131983 58.203125 55.9609375 C40.11848159 44.71783908 18.47186071 43.80732207 -2.24755859 43.86962891 C-4.39297374 43.87504538 -6.53818444 43.86961852 -8.68359375 43.86328125 C-10.06770879 43.86394126 -11.4518237 43.86522081 -12.8359375 43.8671875 C-14.68517822 43.86887939 -14.68517822 43.86887939 -16.57177734 43.87060547 C-20.44907476 43.94423771 -20.44907476 43.94423771 -26 45 Z " fill="#662F85" transform="translate(340,2221)"/>
<path d="M0 0 C1.01964844 0.495 2.03929687 0.99 3.08984375 1.5 C29.28739174 15.02131509 46.78806781 40.93663986 55.85546875 68.37890625 C70.16945474 114.79608367 65.15716574 164.77478534 43.13037109 207.88476562 C40.46988777 212.86325969 37.36865956 217.47042788 34 222 C33.35289062 222.88042969 32.70578125 223.76085938 32.0390625 224.66796875 C11.92528363 250.94308304 -22.61472652 262.24678933 -54.2890625 266.45703125 C-55.85907308 266.64062142 -57.42942551 266.82129815 -59 267 C-59.74674988 267.08814468 -60.49349976 267.17628937 -61.26287842 267.2671051 C-69.89145793 268.1743536 -78.50054606 268.14545629 -87.1640625 268.1328125 C-88.80829889 268.1334878 -90.45253519 268.13445969 -92.09677124 268.13571167 C-95.52415935 268.1371772 -98.95152121 268.13507062 -102.37890625 268.13037109 C-106.75075678 268.12466545 -111.122546 268.12796541 -115.4943943 268.13394356 C-118.88319351 268.1375725 -122.27197839 268.13640004 -125.66077805 268.13381577 C-127.27216982 268.13315342 -128.88356295 268.13395045 -130.49495316 268.13629532 C-138.38933059 268.14526804 -146.1661966 268.11848008 -154 267 C-155.07152017 260.04268352 -155.13620998 253.22634053 -155.11523438 246.1953125 C-155.1152092 244.89947739 -155.11518402 243.60364227 -155.11515808 242.26853943 C-155.11462591 238.65544552 -155.10735726 235.04239236 -155.09871864 231.42930984 C-155.09197072 228.29982207 -155.08888827 225.1703341 -155.08559561 222.0408411 C-155.03722313 178.49411689 -154.78446013 134.94756034 -154.55461884 91.40150642 C-154.49265903 79.64931295 -154.43289355 67.89710856 -154.37324238 56.14490318 C-154.2511337 32.09658998 -154.12648864 8.04829053 -154 -16 C-152.43223197 -16.16108114 -150.86433503 -16.32090782 -149.29638672 -16.48022461 C-147.9867244 -16.61393715 -147.9867244 -16.61393715 -146.65060425 -16.75035095 C-98.83186512 -21.25419294 -43.91001024 -21.37547595 0 0 Z M-99 25 C-99.80491304 33.38601434 -100.1954918 41.71479612 -100.31640625 50.13671875 C-100.33727798 51.40959747 -100.35814972 52.6824762 -100.37965393 53.993927 C-100.43578118 57.4910872 -100.48535607 60.9883094 -100.53263092 64.48559952 C-100.56274239 66.70536883 -100.5941367 68.92511744 -100.62567139 71.14486694 C-100.99295543 97.40171864 -101.10830593 123.65841001 -101.12293625 149.91763687 C-101.12497138 152.77235458 -101.12871988 155.62706562 -101.13284302 158.48178101 C-101.16175832 181.34155411 -100.90459124 204.15668901 -100 227 C-56.38165154 226.77241624 -56.38165154 226.77241624 -18.8125 206.5625 C-9.26069425 196.44341204 -3.49363258 183.00425055 1 170 C1.22671387 169.34451172 1.45342773 168.68902344 1.68701172 168.01367188 C12.72617914 135.2665057 12.5437864 98.22703072 -2.25 66.6875 C-12.01322008 48.15214266 -27.89374505 37.12861222 -47.4375 30.6875 C-64.42487673 25.91837312 -81.45098844 24.81484044 -99 25 Z " fill="#6B3185" transform="translate(798,2240)"/>
<path d="M0 0 C17.49 0 34.98 0 53 0 C53.33 41.91 53.66 83.82 54 127 C70.67958192 107.54048776 86.19649847 87.51930179 101.15161133 66.72827148 C113.36177099 49.75444825 125.76141693 33.02635022 139.34765625 17.125 C142.70675666 13.18615013 145.96519692 9.1677586 149.22265625 5.14453125 C152.61402531 1.0525277 152.61402531 1.0525277 154.81671143 0.75276184 C155.55169861 0.75418686 156.28668579 0.75561188 157.04394531 0.75708008 C157.87951965 0.75400345 158.71509399 0.75092682 159.57598877 0.74775696 C160.48419373 0.75494247 161.39239868 0.76212799 162.328125 0.76953125 C163.26871765 0.76998947 164.2093103 0.77044769 165.17840576 0.7709198 C167.17917127 0.77394751 169.17993432 0.78184916 171.18066406 0.79418945 C174.19605185 0.81217816 177.21112724 0.81470086 180.2265625 0.81445312 C190.52853532 0.83399113 200.73615824 1.0376264 211 2 C203.5263389 17.37427126 190.79491116 30.90294828 180 44 C178.49928825 45.83275076 176.99929362 47.66608895 175.5 49.5 C174.75105469 50.41523438 174.00210937 51.33046875 173.23046875 52.2734375 C171.79500065 54.02817784 170.36006204 55.78335155 168.92578125 57.5390625 C164.97424885 62.3743942 161.01209099 67.20059191 157.03881836 72.01806641 C150.16677445 80.35230719 143.29879844 88.68922899 136.53271484 97.10986328 C135.00485157 98.99401706 133.45177991 100.85494785 131.89453125 102.71484375 C130.94978364 103.87179425 130.00573545 105.02931634 129.0625 106.1875 C128.22847656 107.19167969 127.39445312 108.19585938 126.53515625 109.23046875 C124.71640974 111.82268069 124.71640974 111.82268069 125.41796875 114.30859375 C125.94003906 115.19675781 126.46210937 116.08492187 127 117 C127.35650635 117.62511475 127.7130127 118.25022949 128.08032227 118.89428711 C129.43668522 121.24264472 130.83907525 123.55902638 132.25 125.875 C133.04519043 127.1906897 133.04519043 127.1906897 133.85644531 128.53295898 C136.67393419 133.18920847 139.5085053 137.83501659 142.34375 142.48046875 C157.45220467 167.23572846 172.24513408 192.18825228 186.64453125 217.36328125 C194.91706679 231.81332428 203.4833657 246.03029651 212.25830078 260.17871094 C215.90216645 266.08122169 219.45279084 272.03905771 223 278 C223.57105469 278.91136719 224.14210938 279.82273437 224.73046875 280.76171875 C226 283 226 283 226 285 C214.22239798 285.7607796 202.44085459 286.43909266 190.63989258 286.6796875 C188.82151468 286.72699917 187.00358175 286.79575511 185.18676758 286.88476562 C170.1481589 287.60312355 170.1481589 287.60312355 165.24511719 283.9440918 C163.10130203 281.07311491 161.56043588 278.22285782 160 275 C158.74972023 272.94661482 157.48639958 270.90111997 156.2109375 268.86328125 C154.92631196 266.68320005 153.6478783 264.49946083 152.375 262.3125 C151.67751898 261.12262864 150.97959311 259.93301795 150.28125 258.74365234 C148.86236248 256.32493331 147.44692215 253.90424665 146.03417969 251.48193359 C144.17167802 248.29009417 142.29455437 245.10706053 140.4140625 241.92578125 C133.36900711 229.97594046 126.58124366 217.90026363 119.90820312 205.74047852 C115.65316466 197.9872386 111.35727491 190.25889906 107 182.5625 C106.47180664 181.62889648 105.94361328 180.69529297 105.39941406 179.73339844 C103.08954363 175.6584522 100.76845011 171.59073111 98.41796875 167.5390625 C98.03576172 166.8783374 97.65355469 166.2176123 97.25976562 165.53686523 C96.27506361 163.8385233 95.28430868 162.14369463 94.29296875 160.44921875 C93 158 93 158 93 156 C92.34 156 91.68 156 91 156 C90.77957031 156.53238281 90.55914063 157.06476562 90.33203125 157.61328125 C88.53213951 160.8383072 86.12797769 163.44181661 83.6875 166.1875 C78.41424116 172.22086823 73.49747289 178.46443376 68.67358398 184.8605957 C64.79099393 190.00061885 60.77721719 194.98525127 56.609375 199.8984375 C53.55920191 203.88143051 53.83209494 207.89119192 53.79467773 212.68432617 C53.78477814 213.4650499 53.77487854 214.24577362 53.76467896 215.05015564 C53.73308823 217.63106248 53.70831612 220.21198773 53.68359375 222.79296875 C53.66302213 224.58230569 53.6420256 226.3716378 53.62062073 228.16096497 C53.56542158 232.87092166 53.51600277 237.58092206 53.46777344 242.29095459 C53.41754269 247.09700409 53.36186483 251.90299012 53.30664062 256.70898438 C53.19908542 266.13926869 53.09763456 275.56960812 53 285 C48.90182228 285.63623553 44.94667012 286.12452698 40.79907227 286.11352539 C39.82538696 286.11340454 38.85170166 286.11328369 37.84851074 286.11315918 C36.84791626 286.10804321 35.84732178 286.10292725 34.81640625 286.09765625 C33.87986206 286.09664917 32.94331787 286.09564209 31.97839355 286.09460449 C29.25193295 286.09052049 26.52553232 286.08122111 23.79909134 286.07048416 C18.85036673 286.05281825 13.90162021 286.0417566 8.95288086 286.02905273 C6.86470026 286.02353378 4.77651972 286.01799637 2.68833923 286.01243591 C1.78555709 286.01004127 0.88277494 286.00764662 -0.04736423 286.00517941 C-0.69173404 286.0034702 -1.33610384 286.001761 -2 286 C-1.98308153 284.67412542 -1.98308153 284.67412542 -1.96582127 283.32146549 C-1.38209497 237.28672957 -0.91577548 191.25279037 -0.68359375 145.21484375 C-0.67818085 144.14155209 -0.67276795 143.06826043 -0.66719103 141.96244478 C-0.60189723 128.924765 -0.54131058 115.88706525 -0.48259127 102.84935439 C-0.43172782 91.58287403 -0.37740127 80.31641097 -0.32291877 69.04994762 C-0.2116854 46.03331419 -0.10482496 23.01666357 0 0 Z " fill="#7A378A" transform="translate(1607,2222)"/>
<path d="M0 0 C0.76724396 0.00465271 1.53448792 0.00930542 2.32498169 0.01409912 C14.00689299 0.09703035 25.36490296 0.53955292 36.75 3.375 C37.5642041 3.57367676 38.3784082 3.77235352 39.21728516 3.97705078 C54.94775353 7.94608788 70.85985853 13.69887533 81.75 26.375 C84.91174696 31.89562335 85.82869973 36.39819367 84.1640625 42.53515625 C81.53742709 49.36681806 76.79231862 54.20470375 71.75 59.375 C71.10160156 60.07367187 70.45320313 60.77234375 69.78515625 61.4921875 C64.01456376 67.57845792 64.01456376 67.57845792 59.75 68.375 C57.2426744 66.84960733 55.22664775 65.36778709 53 63.5 C35.47917768 49.80269253 14.97044846 43.22630238 -7.25 45.375 C-26.80985504 48.03036151 -43.19132496 59.00182477 -55.25 74.375 C-75.06714617 102.62806894 -79.69565228 137.84468724 -74.25 171.375 C-69.83954726 194.43184234 -61.1450551 218.64985989 -41.5 233.0625 C-17.67769568 248.72648092 8.50229947 249.81858432 35.75 244.375 C38.75548028 243.7313373 41.75365171 243.05969242 44.75 242.375 C45.60821733 234.33328851 45.94854637 226.35335549 46.06640625 218.26953125 C46.0975779 216.46170418 46.0975779 216.46170418 46.12937927 214.61735535 C46.19420962 210.8074556 46.25344715 206.99749323 46.3125 203.1875 C46.35574864 200.58788442 46.39936483 197.98827493 46.44335938 195.38867188 C46.54982175 189.05084541 46.65170544 182.71295813 46.75 176.375 C45.74324219 176.40529297 44.73648437 176.43558594 43.69921875 176.46679688 C39.88222983 176.5810078 36.06515365 176.69205075 32.24804688 176.80224609 C30.61130364 176.84991512 28.97458357 176.89838807 27.33789062 176.94775391 C16.47089696 177.27483173 5.62227908 177.44248311 -5.25 177.375 C-5.27497996 173.00081751 -5.29299062 168.62667437 -5.30493164 164.25244141 C-5.30991708 162.76871008 -5.31670785 161.28498354 -5.32543945 159.80126953 C-5.33776196 157.65135503 -5.34328626 155.50150624 -5.34765625 153.3515625 C-5.35289307 152.06330566 -5.35812988 150.77504883 -5.36352539 149.44775391 C-5.23241131 144.74400099 -4.7182227 140.05722702 -4.25 135.375 C28.42 135.375 61.09 135.375 94.75 135.375 C94.79125 150.39 94.8325 165.405 94.875 180.875 C94.89320801 185.56396484 94.91141602 190.25292969 94.93017578 195.08398438 C94.93920898 200.94238281 94.93920898 200.94238281 94.94088745 203.71057129 C94.94389925 205.58785967 94.95080429 207.46514494 94.96115112 209.34240723 C95.01849634 220.32453571 94.76494446 231.2282005 93.92529297 242.18164062 C93.85596117 243.1540847 93.78662937 244.12652878 93.71519661 245.12844086 C93.09740164 252.35316687 92.21556384 260.05635108 87.796875 266.00390625 C61.65626528 288.01003178 27.47719163 296.44744037 -6.25 294.375 C-43.10663712 291.16121691 -75.69533072 277.21898832 -99.79052734 248.54150391 C-126.87396391 214.77035516 -136.98634362 171.24699947 -132.75 128.5703125 C-129.34708353 100.35081682 -119.36593183 71.58897027 -101.25 49.375 C-100.81993652 48.83568848 -100.38987305 48.29637695 -99.94677734 47.74072266 C-75.41400561 17.11529039 -39.33066721 -0.42643269 0 0 Z " fill="#6F3387" transform="translate(1034.25,2218.625)"/>
<path d="M0 0 C1.1769342 -0.00175232 2.35386841 -0.00350464 3.56646729 -0.00531006 C6.79384819 -0.00895532 10.02118802 -0.00809886 13.2485683 -0.00493097 C16.66962433 -0.00237749 20.09067785 -0.00475494 23.51173401 -0.00631714 C29.29119345 -0.00813828 35.07064015 -0.00574242 40.85009766 -0.00097656 C46.70231974 0.00379532 52.55451629 0.0039064 58.40673828 -0.00097656 C90.38039776 -0.02705162 122.31771988 0.1080429 154.27954102 1.12939453 C154.27954102 15.31939453 154.27954102 29.50939453 154.27954102 44.12939453 C114.34954102 44.12939453 74.41954102 44.12939453 33.27954102 44.12939453 C33.60954102 67.55939453 33.93954102 90.98939453 34.27954102 115.12939453 C67.93954102 115.12939453 101.59954102 115.12939453 136.27954102 115.12939453 C136.27954102 129.31939453 136.27954102 143.50939453 136.27954102 158.12939453 C111.99111113 159.28598643 111.99111113 159.28598643 100.48425293 159.24255371 C99.65907669 159.24005112 98.83390045 159.23754852 97.98371887 159.23497009 C97.16739487 159.23235672 96.35107086 159.22974335 95.51000977 159.22705078 C93.92297399 159.22557295 92.33593773 159.22455745 90.74890137 159.22399902 C84.98827362 159.21884354 79.22765643 159.20488365 73.46704102 159.19189453 C60.53516602 159.17126953 47.60329102 159.15064453 34.27954102 159.12939453 C34.27954102 186.51939453 34.27954102 213.90939453 34.27954102 242.12939453 C41.04067383 242.05720703 47.80180664 241.98501953 54.76782227 241.91064453 C59.11091971 241.86491564 63.45401772 241.81927175 67.79711914 241.77392578 C74.65560785 241.70230901 81.51409272 241.6304169 88.37255859 241.55664062 C112.00922179 241.30271169 135.64125726 241.05789878 159.27954102 241.12939453 C159.27954102 254.98939453 159.27954102 268.84939453 159.27954102 283.12939453 C127.9880586 286.60622591 96.05620219 285.28570851 64.61860573 285.2579639 C59.1271012 285.25362569 53.63561967 285.2567232 48.14411658 285.26159203 C42.11009922 285.26672087 36.0760976 285.26612363 30.04207802 285.2632103 C27.51427518 285.26255065 24.98647149 285.26333514 22.45866966 285.26568985 C8.69630485 285.27571638 -4.98990917 285.1121043 -18.72045898 284.12939453 C-20.30807778 216.68937466 -19.82654403 149.24635088 -19.33018422 81.79552531 C-19.29854197 77.48800408 -19.26799596 73.18047694 -19.23836166 68.87294143 C-19.18651172 61.33889587 -19.12968525 53.80490952 -19.06764412 46.27094078 C-19.04740298 43.73999843 -19.02859734 41.20904413 -19.01135063 38.67807961 C-18.92441191 26.12960792 -18.82224841 13.63644951 -17.72045898 1.12939453 C-11.82975194 -0.14855524 -5.99490632 -0.01098494 0 0 Z " fill="#7C388A" transform="translate(1885.720458984375,2222.87060546875)"/>
<path d="M0 0 C1.05127609 -0.00128164 1.05127609 -0.00128164 2.12379009 -0.00258917 C4.47763819 -0.00423931 6.83141539 0.00126981 9.18525696 0.00672913 C10.87040709 0.00701112 12.55555734 0.00685302 14.2407074 0.00628662 C18.8209729 0.00599914 23.40121234 0.01188796 27.98147178 0.01886058 C32.76609907 0.02510227 37.55072693 0.02569856 42.33535767 0.02688599 C51.39820957 0.02999689 60.46104944 0.03820705 69.52389604 0.04823548 C79.84057542 0.05940407 90.15725538 0.06490895 100.4739393 0.06993091 C121.69843797 0.08038985 142.92292581 0.09798465 164.14741516 0.12025452 C164.17243342 4.47612648 164.19042322 8.83195859 164.2023468 13.18788147 C164.207326 14.66477692 164.21411179 16.14166757 164.22285461 17.61854553 C164.27213944 26.16801264 164.15956047 34.61572349 163.14741516 43.12025452 C144.54279244 44.07077841 125.97823959 44.2783758 107.35517883 44.25062561 C103.4889778 44.24493404 99.62284577 44.2483083 95.75664711 44.25407791 C77.5284455 44.27695984 59.3581396 44.01774616 41.14741516 43.12025452 C41.14963577 43.6683075 41.15185638 44.21636047 41.15414429 44.78102112 C41.17672889 50.6239098 41.19153619 56.46678561 41.2023468 62.30970764 C41.20729415 64.47377528 41.21405359 66.63783974 41.22285461 68.80189514 C41.23535219 71.96010639 41.24073894 75.11827257 41.24507141 78.27650452 C41.2502327 79.20257507 41.25539398 80.12864563 41.26071167 81.08277893 C41.26160754 92.45962444 40.62241255 103.72031723 40.14741516 115.12025452 C74.79741516 115.12025452 109.44741516 115.12025452 145.14741516 115.12025452 C145.14741516 129.64025452 145.14741516 144.16025452 145.14741516 159.12025452 C110.82741516 159.12025452 76.50741516 159.12025452 41.14741516 159.12025452 C41.14741516 186.18025452 41.14741516 213.24025452 41.14741516 241.12025452 C83.05741516 241.12025452 124.96741516 241.12025452 168.14741516 241.12025452 C168.14741516 254.98025452 168.14741516 268.84025452 168.14741516 283.12025452 C152.39741516 284.24525452 152.39741516 284.24525452 146.19981384 284.24050903 C145.51567917 284.24136505 144.83154449 284.24222107 144.12667847 284.24310303 C141.88828188 284.24472294 139.64996474 284.23929375 137.41157532 284.23377991 C135.75783986 284.23347277 134.10410428 284.23360842 132.45036888 284.23414516 C128.06504565 284.23436877 123.67975031 284.22861882 119.29443359 284.22153473 C115.16298851 284.21579376 111.03154984 284.21556912 106.90010071 284.21485901 C94.85753524 284.20963428 82.81497484 284.19567302 70.77241516 284.18275452 C43.83616516 284.16212952 16.89991516 284.14150452 -10.85258484 284.12025452 C-10.35758484 144.03525452 -10.35758484 144.03525452 -9.85258484 1.12025452 C-6.37236636 -0.03981831 -3.67343016 -0.00269116 0 0 Z " fill="#743488" transform="translate(1200.8525848388672,2222.8797454833984)"/>
<path d="M0 0 C1.03640625 0.00644531 2.0728125 0.01289063 3.140625 0.01953125 C14.10416375 0.12545916 25.05254489 0.60676593 36 1.1875 C33.3971984 9.99167359 29.44285663 18.11437253 25.5 26.375 C25.11983734 27.17618256 24.73967468 27.97736511 24.34799194 28.80282593 C16.90200882 44.48523747 9.1143142 59.99244077 1.3125 75.5 C-8.59577552 95.20162645 -18.22255601 114.95538965 -27 135.1875 C-27.47131348 136.26402832 -27.94262695 137.34055664 -28.42822266 138.44970703 C-33.41931578 149.89672851 -37.93489641 161.46332536 -42.0625 173.25 C-42.44519043 174.33917725 -42.82788086 175.42835449 -43.22216797 176.55053711 C-43.5729541 177.57671143 -43.92374023 178.60288574 -44.28515625 179.66015625 C-44.59332275 180.56000244 -44.90148926 181.45984863 -45.21899414 182.38696289 C-46.74411426 187.85575091 -47.13239507 193.30682557 -47.28125 198.9609375 C-47.29934219 199.61811264 -47.31743439 200.27528778 -47.33607483 200.95237732 C-47.3951295 203.15566135 -47.44776449 205.35904445 -47.5 207.5625 C-47.54019979 209.13761606 -47.58048573 210.71272993 -47.62084961 212.2878418 C-48.23332033 236.91743307 -48.58846515 261.55419964 -49 286.1875 C-67.15 286.1875 -85.3 286.1875 -104 286.1875 C-104 272.26408234 -103.97795378 258.41511183 -103.57165527 244.50973511 C-102.53999623 208.37574531 -102.64368577 179.0653177 -118.5625 145.875 C-119.2849419 144.35661032 -120.00685729 142.83797003 -120.72827148 141.3190918 C-122.4990089 137.59503683 -124.27749722 133.87474903 -126.05859375 130.15563965 C-127.34650937 127.46307435 -128.62635978 124.76670014 -129.90625 122.0703125 C-134.64368656 112.1192627 -139.47208131 102.21387002 -144.328125 92.3203125 C-172.8495465 34.20923473 -172.8495465 34.20923473 -181.9375 12.875 C-182.26226318 12.11541992 -182.58702637 11.35583984 -182.92163086 10.57324219 C-184.14887814 7.61664417 -185 5.42168126 -185 2.1875 C-179.86294517 2.0424138 -174.72582215 1.90013874 -169.58862305 1.76025391 C-167.84804279 1.71248773 -166.10748193 1.66400818 -164.36694336 1.61474609 C-153.57424346 1.30984999 -142.79738545 1.11394415 -132 1.1875 C-119.47204813 23.00087501 -110.7595369 46.73947036 -101.4609375 70.046875 C-100.73922363 71.85511749 -100.73922363 71.85511749 -100.00292969 73.69989014 C-97.61104606 79.6960434 -95.22572325 85.69466254 -92.85253906 91.69824219 C-87.56883688 105.02530992 -82.02662885 118.17868865 -76 131.1875 C-75.34 131.1875 -74.68 131.1875 -74 131.1875 C-68.96625662 123.20100212 -64.92159394 115.02935986 -61.33203125 106.3046875 C-60.90151962 105.26444427 -60.471008 104.22420105 -60.02745056 103.1524353 C-54.64893799 90.04518712 -49.74836078 76.75785001 -44.82543945 63.47460938 C-40.19070432 50.9885287 -35.4381433 38.56585759 -30.30859375 26.2734375 C-29.88159683 25.2368399 -29.45459991 24.20024231 -29.0146637 23.13223267 C-20.78075399 3.67480231 -20.78075399 3.67480231 -14.75 0.44921875 C-9.8158151 0.10485376 -4.9462049 -0.06407001 0 0 Z " fill="#7E398A" transform="translate(2251,2221.8125)"/>
<path d="M0 0 C0.75043579 -0.00095673 1.50087158 -0.00191345 2.27404785 -0.00289917 C3.81600023 -0.00356523 5.35795572 -0.00182446 6.89990234 0.00244141 C9.27317313 0.00793856 11.64626516 0.00238119 14.01953125 -0.00390625 C15.53385458 -0.00324757 17.04817781 -0.0019708 18.5625 0 C19.26959106 -0.00202423 19.97668213 -0.00404846 20.7052002 -0.00613403 C25.60371393 0.01777643 25.60371393 0.01777643 26.71875 1.1328125 C27.83439298 11.5179336 27.79259375 22.01739852 27.77734375 32.44921875 C27.77689056 33.10154669 27.77643738 33.75387463 27.77597046 34.42597008 C27.76519851 46.73142718 27.64130951 59.035293 27.5 71.33984375 C27.48903164 72.29641121 27.47806328 73.25297867 27.46676254 74.23853302 C27.44394465 76.22411252 27.42109795 78.20969169 27.39822388 80.19527054 C26.83978533 128.67595792 26.62741329 177.14951142 26.65625 225.6328125 C26.65667423 226.36654854 26.65709846 227.10028459 26.65753555 227.85625505 C26.66857338 246.61512465 26.69213749 265.37395278 26.71875 284.1328125 C9.22875 284.1328125 -8.26125 284.1328125 -26.28125 284.1328125 C-27.09753743 189.77873183 -27.58419647 95.48593263 -26.28125 1.1328125 C-7.9519501 -0.02385727 -7.9519501 -0.02385727 0 0 Z " fill="#683085" transform="translate(546.28125,2222.8671875)"/>
</svg>
