<svg width="1600" height="1200" viewBox="0 0 1600 1200" fill="none" xmlns="http://www.w3.org/2000/svg">
  <defs>
    <linearGradient id="bg1" x1="0" y1="0" x2="1600" y2="1200" gradientUnits="userSpaceOnUse">
      <stop stop-color="#0A0A0A"/>
      <stop offset="1" stop-color="#2B2B30"/>
    </linearGradient>
    <linearGradient id="line1" x1="265" y1="190" x2="1320" y2="980" gradientUnits="userSpaceOnUse">
      <stop stop-color="#FFFFFF" stop-opacity="0.8"/>
      <stop offset="1" stop-color="#FF2D2D" stop-opacity="0.9"/>
    </linearGradient>
    <radialGradient id="orb1" cx="0" cy="0" r="1" gradientUnits="userSpaceOnUse" gradientTransform="translate(1120 300) rotate(124) scale(500 560)">
      <stop stop-color="#FF2D2D" stop-opacity="0.6"/>
      <stop offset="1" stop-color="#FF2D2D" stop-opacity="0"/>
    </radialGradient>
  </defs>

  <rect width="1600" height="1200" fill="url(#bg1)"/>
  <rect width="1600" height="1200" fill="url(#orb1)"/>

  <g opacity="0.7">
    <path d="M190 870C480 640 910 680 1310 390" stroke="url(#line1)" stroke-width="2"/>
    <path d="M220 950C470 600 930 630 1360 330" stroke="url(#line1)" stroke-opacity="0.5" stroke-width="1.5"/>
    <path d="M150 760C470 500 930 570 1430 220" stroke="url(#line1)" stroke-opacity="0.35" stroke-width="1.2"/>
  </g>

  <g opacity="0.93">
    <circle cx="270" cy="940" r="7" fill="#FFFFFF"/>
    <circle cx="620" cy="760" r="8" fill="#FFFFFF"/>
    <circle cx="920" cy="700" r="9" fill="#FF2D2D"/>
    <circle cx="1260" cy="420" r="11" fill="#FFFFFF"/>
    <circle cx="1380" cy="320" r="9" fill="#FF2D2D"/>
  </g>

  <rect x="190" y="170" width="1220" height="860" rx="30" stroke="rgba(255,255,255,0.15)"/>
</svg>
